HIERARCHY
ROOT Hips
{
	OFFSET 0.00000 0.00000 0.00000
	CHANNELS 6 Xposition Yposition Zposition Yrotation Zrotation Xrotation 
	JOINT Lumbar
	{
		OFFSET 0 0 0
		CHANNELS 3 Zrotation Xrotation Yrotation
		JOINT Neck
		{
			OFFSET 0.00 0.2701 0.00
			CHANNELS 3 Zrotation Xrotation Yrotation
			End Site
			{
				OFFSET 0.00 0.1379 0.00
			}
		}
		JOINT RightShoulder
		{
			OFFSET 0.0119 0.2289 0.1181
			CHANNELS 3 Zrotation Xrotation Yrotation
			JOINT RightElbow
			{
				OFFSET 0.00 -0.1475 0.00
				CHANNELS 2 Zrotation Yrotation
				JOINT RightWrist
				{
					OFFSET 0.00 -0.1605 0.00
					CHANNELS 2 Zrotation Xrotation
					End Site
					{
						OFFSET 0.0040 -0.1068 0.0006
					}
				}
			}
		}
		JOINT LeftShoulder
		{
			OFFSET 0.0119 0.2289 -0.1181
			CHANNELS 3 Zrotation Xrotation Yrotation
			JOINT LeftElbow
			{
				OFFSET 0.00 -0.1475 0.00
				CHANNELS 2 Zrotation Yrotation
				JOINT LeftWrist
				{
					OFFSET 0.00 -0.1605 0.00
					CHANNELS 2 Zrotation Xrotation
					End Site
					{
						OFFSET 0.0040 -0.1068 -0.0006
					}
				}
			}
		}
	}
	JOINT RightHip
	{
		OFFSET 0.0316 -0.0424 0.0458
		CHANNELS 3 Zrotation Xrotation Yrotation
		JOINT RightKnee
		{
			OFFSET 0.00 -0.2438 0.00
			CHANNELS 1 Zrotation
			JOINT RightAnkle
			{
				OFFSET 0.00 -0.2449 0.00
				CHANNELS 3 Zrotation Xrotation Yrotation
				End Site
				{
					OFFSET 0.1237 -0.0542 0.0051
				}
			}
		}
	}
	JOINT LeftHip
	{
		OFFSET 0.0316 -0.0424 -0.0458
		CHANNELS 3 Zrotation Xrotation Yrotation
		JOINT LeftKnee
		{
			OFFSET 0.00 -0.2438 0.00
			CHANNELS 1 Zrotation
			JOINT LeftAnkle
			{
				OFFSET 0.00 -0.2449 0.00
				CHANNELS 3 Zrotation Xrotation Yrotation
				End Site
				{
					OFFSET 0.1237 -0.0542 -0.0051
				}
			}
		}
	}
}
MOTION
Frames: 23
Frame Time: 0.02
-0.40911 0.56656 -0.40706 901.67025 0 -2.35602 4.21606 0.56776 -0.85188 -38.20217 -0.26193 3.30905 31.73846 -13.3813 21.32558 86.60304 98.39348 -75.22823 -21.877 26.87193 11.67208 -17.24354 87.06902 -105.36328 -75.22027 21.87081 14.11666 0.85651 -3.94195 -55.6003 6.93953 -0.28413 2.40196 3.6197 -2.0482 9.0139 -7.9442 5.2265 4.75607 8.4749
-0.4133 0.56686 -0.40679 902.73214 0 -2.53313 4.28206 0.54301 -1.29138 -38.21677 -0.1423 3.23885 32.11704 -13.34029 22.06401 87.428 98.15732 -75.23076 -21.89936 27.74407 11.75375 -19.03562 88.2392 -104.01699 -75.2408 21.90601 14.14852 1.06324 -3.78578 -52.30115 6.68885 -0.5557 1.71456 3.30039 -1.90858 8.80374 -7.99771 5.40125 4.61214 7.92209
-0.41746 0.56713 -0.40666 903.87031 0 -2.70688 4.36425 0.51986 -1.779 -38.20122 -0.03092 3.16838 32.43691 -13.28419 22.78425 88.20639 98.05768 -75.22961 -21.88939 28.59766 11.84818 -20.97066 89.62523 -102.45471 -75.23078 21.88922 13.85619 1.31343 -3.41915 -48.0216 5.79339 -0.91392 0.97872 2.9867 -1.74142 8.61784 -8.04616 5.5741 4.41885 7.2487
-0.42164 0.56741 -0.40647 904.96101 0 -2.88205 4.44523 0.50107 -2.23158 -38.2092 0.07923 3.09472 32.79316 -13.2312 23.50859 88.99223 97.9645 -75.22349 -21.83466 29.47064 11.94902 -22.83789 90.90464 -101.07281 -75.18236 21.801 13.70648 1.54452 -3.09813 -44.21665 5.19907 -1.22877 0.24204 2.67038 -1.58579 8.41302 -8.09905 5.74932 4.25407 6.64651
-0.4258 0.56769 -0.40628 906.11227 0 -3.06127 4.50097 0.46396 -2.74218 -38.17888 0.21154 3.03429 33.11367 -13.19449 24.25349 89.82966 97.60115 -75.24455 -22.02166 30.30523 11.99745 -24.7286 92.22557 -99.35135 -75.35162 22.09956 13.56779 1.77945 -2.98242 -40.24817 4.58553 -1.56154 -0.41238 2.35503 -1.43051 8.23952 -8.14267 5.91683 4.06277 5.97338
-0.42998 0.56796 -0.40611 907.15213 0 -3.22998 4.61281 0.46446 -3.14254 -38.21941 0.29525 2.94687 33.49192 -13.12043 24.94977 90.55096 97.8175 -75.20918 -21.70901 31.20982 12.15733 -26.59612 93.50808 -98.27351 -75.06397 21.59826 13.33193 2.01368 -2.39982 -36.40914 3.85577 -1.87662 -1.23911 2.03884 -1.26918 8.00806 -8.20435 6.10025 3.91545 5.42023
-0.43427 0.56819 -0.40593 907.87612 0 -3.36893 4.87618 0.56486 -3.22519 -38.46928 0.24737 2.78091 34.05306 -12.9429 25.52018 90.96342 99.70371 -75.00856 -19.92376 32.34296 12.63524 -28.41113 94.64512 -99.14395 -73.48945 18.74483 12.9144 2.24159 -0.4746 -33.09339 2.92973 -2.12832 -2.5929 1.71776 -1.10081 7.60161 -8.31872 6.33061 3.89987 5.22517
-0.43859 0.56841 -0.40575 908.48251 0 -3.49714 5.19522 0.7032 -3.19512 -38.78975 0.15061 2.58862 34.67179 -12.72892 26.04106 91.26146 102.14915 -74.7524 -17.65428 33.54041 13.22274 -30.18779 95.73285 -100.64888 -71.46208 15.11679 12.41001 2.46546 1.89427 -29.96024 1.91255 -2.35791 -4.10571 1.39573 -0.92729 7.13801 -8.45109 6.57679 3.93059 5.15565
-0.44288 0.56863 -0.40558 909.13533 0 -3.63076 5.48828 0.82605 -3.21737 -39.07361 0.07572 2.41115 35.25787 -12.5342 26.58183 91.61246 104.26865 -74.5295 -15.6743 34.68795 13.75151 -31.95099 96.83387 -101.78515 -69.66365 11.94659 11.94227 2.68596 3.99168 -26.79716 0.9563 -2.5932 -5.50286 1.07488 -0.75483 6.70646 -8.57439 6.81425 3.94147 5.03069
-0.44723 0.56886 -0.40538 909.82111 0 -3.76214 5.78484 0.94173 -3.23696 -39.37633 0.00205 2.22163 35.87029 -12.32769 27.13359 91.95754 106.6919 -74.27594 -13.40554 35.92355 14.3181 -33.85128 97.98139 -103.24919 -67.76715 8.33036 11.47602 2.92924 6.39084 -23.37604 -0.10431 -2.84993 -7.08405 0.75123 -0.58689 6.2494 -8.70173 7.05805 3.94592 4.89494
-0.45146 0.56908 -0.40525 910.40855 0 -3.89559 6.08706 1.08121 -3.23439 -39.65593 -0.08569 2.05093 36.44105 -12.13713 27.65025 92.28859 108.61884 -74.0689 -11.61677 36.98959 14.83211 -35.45306 99.01706 -104.18868 -65.96691 5.45673 10.98898 3.12456 8.26461 -20.54766 -0.96108 -3.05558 -8.32026 0.43292 -0.40848 5.83242 -8.82444 7.29245 3.97494 4.81273
-0.45538 0.56927 -0.40528 910.7588 0 -4.03787 6.39156 1.27812 -3.20011 -39.86199 -0.20027 1.93867 36.89221 -12.0007 28.08801 92.60798 108.98919 -74.04259 -11.33493 37.58501 15.17166 -36.25579 99.75889 -103.48518 -64.55124 4.85109 10.47898 3.17902 8.57417 -19.32701 -1.22813 -3.1253 -8.55286 0.13127 -0.20456 5.53276 -8.93455 7.49683 4.06492 4.85159
-0.45919 0.56946 -0.40538 911.01256 0 -4.18247 6.6996 1.49748 -3.14664 -40.0404 -0.3273 1.84598 37.29729 -11.88131 28.49119 92.91787 108.84789 -74.05957 -11.54338 38.00475 15.45514 -36.75582 100.38848 -102.24014 -63.24716 5.01476 9.95039 3.18676 8.33993 -18.69907 -1.2845 -3.14394 -8.4345 -0.16533 0.00988 5.27655 -9.03845 7.69114 4.1776 4.94009
-0.46305 0.56965 -0.40546 911.30662 0 -4.32576 7.00593 1.70592 -3.10068 -40.22744 -0.44866 1.74469 37.71829 -11.75358 28.9064 93.23266 108.97413 -74.02913 -11.48346 38.4968 15.76552 -37.38321 101.06604 -101.27011 -61.8864 4.80792 9.42312 3.22194 8.3563 -17.79413 -1.43713 -3.18578 -8.48478 -0.46537 0.22085 5.00527 -9.1423 7.89033 4.27703 5.00365
-0.46692 0.56986 -0.40549 911.61222 0 -4.46994 7.31513 1.91874 -3.05665 -40.43621 -0.57184 1.64238 38.1651 -11.62757 29.33531 93.53995 108.97767 -74.10663 -11.59016 39.02459 16.07277 -38.05207 101.7537 -100.20081 -60.53328 4.66141 8.92206 3.23126 8.37199 -16.92572 -1.59132 -3.22716 -8.50307 -0.76055 0.4268 4.71268 -9.25928 8.08922 4.38983 5.08072
-0.47072 0.57003 -0.40563 911.87166 0 -4.6127 7.61784 2.12723 -3.00463 -40.58888 -0.69348 1.54575 38.54316 -11.50188 29.72828 93.86337 109.101 -73.97941 -11.4836 39.43324 16.37304 -38.56359 102.39574 -99.20051 -59.1988 4.58307 8.36395 3.28284 8.25616 -16.12154 -1.69079 -3.25739 -8.50127 -1.06468 0.64526 4.47501 -9.34672 8.28561 4.48036 5.14088
-0.4744 0.57016 -0.40608 912.03403 0 -4.75322 7.90664 2.31846 -2.94366 -40.62121 -0.80845 1.47284 38.76918 -11.3789 30.02918 94.22423 109.7394 -73.19579 -10.57281 39.57319 16.65661 -38.71014 102.92743 -98.5277 -57.87437 4.50003 7.64754 3.46738 7.88963 -15.33598 -1.69045 -3.27146 -8.53997 -1.39428 0.89889 4.38365 -9.35835 8.48195 4.49686 5.13243
-0.478 0.57025 -0.40663 912.15262 0 -4.89182 8.1874 2.50432 -2.87466 -40.59199 -0.92131 1.40288 38.92136 -11.25498 30.29553 94.60445 110.50382 -72.21798 -9.44856 39.59539 16.93664 -38.70951 103.42007 -97.93859 -56.57107 4.46386 6.87615 3.69519 7.4106 -14.59689 -1.64168 -3.27573 -8.56777 -1.733 1.16411 4.34557 -9.33967 8.67521 4.49112 5.10625
-0.48162 0.57036 -0.40714 912.28739 0 -5.02994 8.46862 2.69231 -2.80394 -40.57305 -1.03419 1.32309 39.09091 -11.12738 30.57892 94.98197 111.1668 -71.38468 -8.48972 39.66025 17.22504 -38.77982 103.93792 -97.30567 -55.26801 4.4132 6.13346 3.90007 6.995 -13.84405 -1.61492 -3.28326 -8.59323 -2.06801 1.42194 4.2797 -9.33193 8.86695 4.50012 5.09424
-0.48529 0.57048 -0.40764 912.43437 0 -5.17403 8.76433 2.8824 -2.75366 -40.63001 -1.15054 1.27912 39.33132 -11.01657 30.85578 95.33141 111.99186 -70.32348 -7.26767 39.76627 17.48297 -38.8237 104.41811 -96.68047 -53.92167 4.35999 5.373 4.11711 6.51088 -13.07874 -1.58148 -3.29422 -8.63774 -2.40154 1.6892 4.22964 -9.33569 9.07077 4.49096 5.05907
-0.48883 0.57057 -0.40818 912.54685 0 -5.30499 9.02683 3.06656 -2.661 -40.51196 -1.26019 1.16186 39.40209 -10.87178 31.13805 95.7465 112.52451 -69.68007 -6.52581 39.75909 17.80427 -38.89006 104.97173 -96.06372 -52.67576 4.3135 4.63846 4.31972 6.14714 -12.34539 -1.5524 -3.29615 -8.64403 -2.73971 1.93929 4.15973 -9.30872 9.24869 4.51331 5.06623
-0.49203 0.5706 -0.40876 912.57502 0 -5.40183 9.20848 3.23512 -2.43785 -39.94858 -1.34039 0.83459 39.06529 -10.62429 31.44781 96.31759 112.14329 -70.32716 -7.25716 39.48446 18.30001 -39.06804 105.71472 -95.47426 -51.64597 4.27015 3.97478 4.47206 6.16824 -11.66315 -1.55475 -3.27807 -8.55355 -3.09424 2.14025 4.01293 -9.20133 9.35677 4.63436 5.20304
-0.49507 0.57061 -0.40936 912.57057 0 -5.48512 9.35526 3.39771 -2.17536 -39.2074 -1.41523 0.43505 38.55193 -10.34649 31.76366 96.95789 111.47821 -71.38569 -8.46022 39.09823 18.85925 -39.27193 106.53804 -94.89054 -50.72689 4.22908 3.3419 4.60855 6.31266 -11.01342 -1.56279 -3.25116 -8.42585 -3.452 2.32319 3.84557 -9.0647 9.43869 4.7866 5.38124
